<?xml version="1.0" encoding="utf-8"?>
<!-- Generator: Adobe Illustrator 19.0.0, SVG Export Plug-In . SVG Version: 6.00 Build 0)  -->
<svg version="1.1" id="Layer_1" xmlns="http://www.w3.org/2000/svg" xmlns:xlink="http://www.w3.org/1999/xlink" x="0px" y="0px"
	 viewBox="0 0 500 500" style="enable-background:new 0 0 500 500;" xml:space="preserve">
<style type="text/css">
	.st0{fill:#fff;}
</style>
<g id="XMLID_1_">
	<path id="XMLID_2_" class="st0" d="M122.2,195.3c-30.2,0-54.7,24.5-54.7,54.7c0,30.2,24.5,54.7,54.7,54.7
		c30.2,0,54.7-24.5,54.7-54.7C177,219.8,152.5,195.3,122.2,195.3L122.2,195.3z M147.3,274.2c-1,1.6-3.1,2.1-4.7,1.1
		c-12.9-7.9-29-9.6-48.1-5.3c-1.8,0.4-3.7-0.7-4.1-2.6c-0.4-1.8,0.7-3.7,2.6-4.1c20.9-4.8,38.7-2.7,53.2,6.1
		C147.8,270.5,148.3,272.6,147.3,274.2z M154,259.3c-1.2,2-3.9,2.6-5.9,1.4c-14.7-9-37.1-11.7-54.5-6.4c-2.3,0.7-4.6-0.6-5.3-2.8
		c-0.7-2.3,0.6-4.6,2.8-5.3c19.9-6,44.6-3.1,61.5,7.3C154.6,254.7,155.3,257.3,154,259.3L154,259.3z M154.6,243.8
		c-17.6-10.5-46.7-11.4-63.6-6.3c-2.7,0.8-5.6-0.7-6.4-3.4c-0.8-2.7,0.7-5.6,3.4-6.4c19.3-5.9,51.5-4.7,71.8,7.3
		c2.4,1.4,3.2,4.6,1.8,7C160.2,244.4,157,245.2,154.6,243.8L154.6,243.8z M216.4,245.8c-9.5-2.3-11.1-3.8-11.1-7.2
		c0-3.1,3-5.3,7.4-5.3c4.3,0,8.5,1.6,12.9,4.9c0.1,0.1,0.3,0.1,0.5,0.1c0.2,0,0.3-0.1,0.4-0.3l4.6-6.5c0.2-0.3,0.1-0.6-0.1-0.8
		c-5.3-4.2-11.2-6.3-18.2-6.3c-10.2,0-17.3,6.1-17.3,14.9c0,9.4,6.2,12.7,16.8,15.3c9,2.1,10.6,3.8,10.6,6.9c0,3.5-3.1,5.6-8.1,5.6
		c-5.5,0-10-1.9-15.1-6.2c-0.1-0.1-0.3-0.2-0.5-0.2c-0.2,0-0.3,0.1-0.4,0.2l-5.2,6.2c-0.2,0.3-0.2,0.6,0.1,0.9
		c5.9,5.2,13.1,8,20.8,8c11,0,18.1-6,18.1-15.3C232.6,252.9,227.9,248.6,216.4,245.8L216.4,245.8z M257.5,236.5
		c-4.8,0-8.7,1.9-11.9,5.7v-4.3c0-0.3-0.3-0.6-0.6-0.6h-8.5c-0.3,0-0.6,0.3-0.6,0.6V286c0,0.3,0.3,0.6,0.6,0.6h8.5
		c0.3,0,0.6-0.3,0.6-0.6v-15.2c3.2,3.6,7.1,5.4,11.9,5.4c8.9,0,17.8-6.8,17.8-19.8C275.3,243.3,266.4,236.5,257.5,236.5L257.5,236.5
		L257.5,236.5z M265.5,256.3c0,6.6-4.1,11.3-9.9,11.3c-5.8,0-10.2-4.8-10.2-11.3c0-6.4,4.4-11.3,10.2-11.3
		C261.3,245.1,265.5,249.8,265.5,256.3L265.5,256.3z M298.3,236.5c-11.4,0-20.3,8.8-20.3,20c0,11.1,8.9,19.8,20.2,19.8
		c11.4,0,20.4-8.8,20.4-19.9C318.6,245.2,309.7,236.5,298.3,236.5L298.3,236.5z M298.3,267.7c-6.1,0-10.6-4.9-10.6-11.3
		c0-6.5,4.4-11.2,10.5-11.2c6.1,0,10.7,4.9,10.7,11.3C308.9,263,304.4,267.7,298.3,267.7z M342.9,237.2h-9.3v-9.5
		c0-0.3-0.3-0.6-0.6-0.6h-8.5c-0.3,0-0.6,0.3-0.6,0.6v9.5h-4.1c-0.3,0-0.6,0.3-0.6,0.6v7.3c0,0.3,0.3,0.6,0.6,0.6h4.1v18.8
		c0,7.6,3.8,11.5,11.3,11.5c3,0,5.5-0.6,7.9-2c0.2-0.1,0.3-0.3,0.3-0.5v-6.9c0-0.2-0.1-0.4-0.3-0.5c-0.2-0.1-0.4-0.1-0.6,0
		c-1.6,0.8-3.2,1.2-5,1.2c-2.7,0-3.9-1.2-3.9-4v-17.5h9.3c0.3,0,0.6-0.3,0.6-0.6v-7.3C343.6,237.5,343.3,237.3,342.9,237.2
		L342.9,237.2L342.9,237.2z M375.4,237.3v-1.2c0-3.4,1.3-5,4.3-5c1.8,0,3.2,0.4,4.8,0.9c0.2,0.1,0.4,0,0.6-0.1
		c0.2-0.1,0.3-0.3,0.3-0.5v-7.1c0-0.3-0.2-0.5-0.4-0.6c-1.7-0.5-3.8-1-7-1c-7.8,0-11.9,4.4-11.9,12.7v1.8h-4.1
		c-0.3,0-0.6,0.3-0.6,0.6v7.3c0,0.3,0.3,0.6,0.6,0.6h4.1v29c0,0.3,0.3,0.6,0.6,0.6h8.5c0.3,0,0.6-0.3,0.6-0.6v-29h7.9l12.1,29
		c-1.4,3-2.7,3.7-4.6,3.7c-1.5,0-3.1-0.4-4.7-1.3c-0.2-0.1-0.3-0.1-0.5,0c-0.2,0.1-0.3,0.2-0.4,0.3l-2.9,6.3c-0.1,0.3,0,0.6,0.3,0.8
		c3,1.6,5.7,2.3,9,2.3c6.2,0,9.7-2.9,12.7-10.7l14.7-37.9c0.1-0.2,0.1-0.4-0.1-0.6c-0.1-0.2-0.3-0.3-0.5-0.3h-8.8
		c-0.3,0-0.5,0.2-0.6,0.4l-9,25.8l-9.9-25.8c-0.1-0.2-0.3-0.4-0.6-0.4L375.4,237.3L375.4,237.3L375.4,237.3z M356.6,237.2h-8.5
		c-0.3,0-0.6,0.3-0.6,0.6v36.9c0,0.3,0.3,0.6,0.6,0.6h8.5c0.3,0,0.6-0.3,0.6-0.6v-36.9C357.2,237.5,356.9,237.2,356.6,237.2
		L356.6,237.2z M352.4,220.4c-3.4,0-6.1,2.7-6.1,6.1c0,3.4,2.7,6.1,6.1,6.1s6.1-2.7,6.1-6.1C358.4,223.2,355.7,220.4,352.4,220.4z
		 M426.5,249.1c-3.3,0-6-2.7-6-6c0-3.3,2.6-6,6-6c3.3,0,6,2.7,6,6C432.5,246.4,429.9,249.1,426.5,249.1z M426.5,237.8
		c-3.1,0-5.4,2.4-5.4,5.4c0,3,2.3,5.4,5.3,5.4c3.1,0,5.4-2.4,5.4-5.4C431.9,240.2,429.6,237.8,426.5,237.8z M427.9,243.7l1.7,2.4
		h-1.4l-1.5-2.2h-1.3v2.2h-1.2v-6.3h2.8c1.5,0,2.4,0.7,2.4,2C429.3,242.9,428.7,243.5,427.9,243.7L427.9,243.7z M426.9,240.9h-1.5v2
		h1.5c0.8,0,1.2-0.4,1.2-1C428.1,241.3,427.6,240.9,426.9,240.9z"/>
</g>
</svg>
